<?xml version="1.0" encoding="UTF-8"?>
<svg width="604px" height="154px" viewBox="0 0 604 154" version="1.1" xmlns="http://www.w3.org/2000/svg" xmlns:xlink="http://www.w3.org/1999/xlink">
    <!-- Generator: Sketch 47.1 (45422) - http://www.bohemiancoding.com/sketch -->
    <title>API</title>
    <desc>Created with Sketch.</desc>
    <defs></defs>
    <g id="Page-1" stroke="none" stroke-width="1" fill="none" fill-rule="evenodd">
        <g id="API" fill-rule="nonzero">
            <g id="logo_api" transform="translate(-2.000000, 0.000000)">
                <path d="M560,94.4916531 C561.926567,96.1610307 564.426741,97 567.496363,97 C572.51957,97 575.767925,94.5044945 577.237271,89.5156237 C577.744371,87.8162829 578,85.9949491 578,84.0473418 C578,82.0997346 577.823346,80.5459293 577.46796,79.3816454 C577.114652,78.221642 576.649117,77.215735 576.079667,76.3639243 C575.50814,75.5185344 574.868029,74.8122592 574.157257,74.2515196 C573.450641,73.6886397 572.723242,73.2391919 571.989609,72.8988956 C570.696917,72.2996319 569.364738,72 567.995151,72 C566.623485,72 565.204018,72.3253146 563.734673,72.9759438 C562.259092,73.6308535 561.018358,74.5062067 560.004157,75.6020033 L560.004157,94.4916531 L560,94.4916531 Z M559.61952,104.328012 L559.61952,115.677711 C559.61952,117.891566 559.670973,119.333735 559.776023,120 L550,120 L550,64 L559.61952,64 L559.61952,67.3039157 C562.786008,65.1174699 565.821721,64.0231928 568.726657,64.0231928 C571.631594,64.0231928 574.208519,64.4237952 576.459577,65.225 C578.710635,66.0198795 580.68299,67.2554217 582.387362,68.9295181 C586.128406,72.5560241 588,77.7301205 588,84.4475904 C588,88.9006024 586.940931,92.8771084 584.820649,96.3771084 C583.015515,99.3373494 580.515769,101.70512 577.323554,103.48253 C574.497941,105.051205 571.434358,105.835542 568.137094,105.835542 C564.839831,105.835542 562.001354,105.335843 559.61952,104.332229 L559.61952,104.328012 Z M595,106 L605,106 L605,64 L595,64 L595,106 Z M528.995857,89.8078536 L528.985501,89.8078536 L528.985501,95.1338162 C526.74855,96.375143 524.339685,97 521.76512,97 C519.167771,97 517.214582,96.6120854 515.899337,95.8467404 C515.211682,95.4336637 514.727009,94.9157453 514.434963,94.2866946 C514.144988,93.6576439 514,92.9363324 514,92.1143729 C514,91.2966069 514.227838,90.5123904 514.683513,89.7701106 C516.20174,87.2581014 519.758078,86 525.350456,86 L526.870754,86 C527.608119,86 528.316487,86.0629051 529,86.1929089 L529,89.8057568 L528.995857,89.8078536 Z M538.997879,79.7065239 C538.997879,77.2718643 538.616107,75.0832155 537.865289,73.1363361 C535.511029,67.0454454 530.102594,64 521.652709,64 C516.210338,64 511.1964,65.2046051 506.606654,67.6159362 L507.773179,76.2051101 L507.889832,76.2856999 C508.977881,75.2507574 510.780693,74.3303373 513.294025,73.5286811 C514.432978,73.1639063 515.605866,72.8712381 516.81481,72.6527974 C518.017392,72.4322359 519.249667,72.3219552 520.505272,72.3219552 C521.765119,72.3219552 522.950733,72.440719 524.064235,72.6740053 C527.436553,73.3738639 529.224518,75.7979196 529.430251,79.9440517 C529.11847,79.8931529 528.772755,79.8592204 528.380378,79.8464957 C527.992243,79.833771 527.644407,79.8146839 527.332626,79.7892345 L525.775845,79.7510604 C518.933644,79.7510604 513.516725,81.0998788 509.525088,83.7953949 C505.840989,86.2809533 504,89.3942638 504,93.1268431 C504,97.2984246 505.505878,100.485962 508.511271,102.691577 C509.989577,103.777419 511.792389,104.600283 513.915465,105.158049 C516.040662,105.713694 518.596413,105.993638 521.576354,105.993638 C523.973034,105.993638 526.603018,105.336195 529.455702,104.042517 L529.455702,106 L539,106 L539,79.7065239 L538.997879,79.7065239 Z M600.001048,46 C596.689258,46 594,48.6866923 594,52 C594,55.3154034 596.682969,58 599.998952,58 C603.310742,58 606,55.3174991 606,52.0020957 C606,48.6908837 603.312838,46.0041914 599.998952,46.0041914 L600.001048,46 Z" id="Shape" fill="#2B50FF"></path>
                <path d="M135.173351,84.7929416 C131.866322,88.9309805 127.341471,91 121.598801,91 C115.397057,91 110.389755,88.8836641 106.579019,84.6552938 C104.787357,82.6981132 103.408011,80.353798 102.445232,77.6115945 C101.480327,74.8693909 101,72.0325545 101,69.1053866 C101,63.1048001 102.606757,58.0182814 105.824523,53.8350767 C109.358965,49.2754913 114.251499,47 120.5,47 C126.654986,47 131.500763,49.1399941 135.03733,53.4156809 C138.34436,57.416072 140,62.6638968 140,69.1742106 C140,75.5898915 138.391117,80.7968521 135.175477,84.7929416 L135.173351,84.7929416 Z M121.152295,31.0021134 C110.000898,31.0021134 100.93008,34.700634 93.9398407,42.1019021 C90.7386242,45.5256754 88.2837944,49.5348718 86.569008,54.1273776 C84.856336,58.71777 84,63.5237334 84,68.5494945 C84,78.9645285 86.9918899,87.4859199 92.9798986,94.1052151 C99.5557133,101.369109 108.651904,105 120.260014,105 C131.502332,105 140.526633,101.297253 147.337147,93.9002113 C153.779754,86.9110641 157,78.0916776 157,67.4505055 C157,56.8093334 153.870673,48.1547952 147.61202,41.4826641 C141.078494,34.4935169 132.255062,31 121.150181,31 L121.152295,31.0021134 Z M188.024411,37.2390791 L188.024411,31.1661529 L171,31.1661529 L171,106 L188.024411,106 L188.024411,54.8805021 L208,46.5409203 L208,29 L207.768947,29 L188.024411,37.2390791 Z M302,105 L319,105 L319,31 L302,31 L302,105 Z M48.715185,69.1729072 C45.9957334,71.7271643 42.7768763,73 39.0565154,73 C34.1589844,73 30.1910191,71.6091104 27.1526194,68.8251848 C25.7928936,67.5716671 24.7605092,66.1571667 24.0575645,64.5795373 C23.3525215,63.0019079 23,61.3555927 23,59.638445 C23,57.9212974 23.3147513,56.229907 23.9526474,54.5578345 C26.1307267,48.8526115 30.9611107,46 38.4417011,46 C42.9783171,46 46.5413024,47.2062962 49.1222634,49.6188886 C51.7095195,52.031481 53,55.1996184 53,59.1168614 C53,63.0362509 51.5731272,66.3868352 48.715185,69.1707608 L48.715185,69.1729072 Z M27.7454728,112 L31.3149103,112.627331 C41.3292244,114.109721 48.3961606,116.178623 52.5114873,118.827591 C56.1719063,121.147855 58,124.213612 58,128.022712 C58,136.006138 52.3718412,140 41.1218712,140 C34.5373486,140 29.1630917,138.631474 24.9991006,135.890125 C23.1265741,134.637612 21.6624064,133.174557 20.6129452,131.503107 C19.5592524,129.831658 19.0218267,127.846543 19.0006682,125.547763 C18.975278,123.248983 19.6735082,120.8213 21.0911272,118.269009 C22.5087461,115.716719 24.7303877,113.628482 27.7454728,112 L27.7454728,112 Z M39.5052791,31 C29.699384,31 21.7166637,33.8971752 15.5613385,39.702177 C9.72464685,45.2281127 6.80419088,52.0897314 6.80419088,60.2806422 C6.80419088,67.6045307 9.38280157,73.7290739 14.5358026,78.6542718 C10.1086952,82.1990509 7.89725171,86.5277715 7.89725171,91.6383034 C7.89725171,94.6782071 8.24964777,97.3815272 8.9586602,99.7546546 C9.66556248,102.125652 11.0688162,104.185628 13.1642012,105.932455 C5.45791132,110.214309 1.73981637,117.146227 2.01413666,126.723947 C2.19561008,134.963855 5.75333317,141.57197 12.6851958,146.544034 C19.6191685,151.513968 28.739263,154 40.0539197,154 C51.2715092,154 59.7290147,151.801555 65.4327665,147.404666 C71.1301878,143.007776 73.9831188,136.710681 73.9831188,128.515509 C73.9831188,120.320338 71.7252518,113.987028 67.2095178,109.52197 C64.7933892,107.178666 61.6344856,105.197509 57.7349172,103.584891 C53.8353488,101.974402 48.44179,100.628068 41.5563508,99.5458875 C34.6688015,98.4637074 29.7183754,97.2089749 26.711403,95.78169 C25.3398016,95.1383467 24.453536,94.460919 24.0420556,93.743016 C23.6326853,93.0315038 23.4301104,92.0174925 23.4301104,90.7052426 C23.4301104,89.3929926 24.2699525,87.6099517 25.9580773,85.3539895 C29.834434,86.6896725 34.0315343,87.3564488 38.5451581,87.3564488 C47.8045228,87.3564488 55.420076,84.5231819 61.3981481,78.8609086 C64.0864869,76.2364087 66.1607703,73.1879839 67.6231084,69.7092433 C69.0791161,66.2368936 69.8092301,62.3597915 69.8092301,58.0779369 C69.8092301,53.7960824 68.8280075,49.7421673 66.8676726,45.9204524 L66.8043679,45.8309808 L74,45.8309808 L74,31.0042606 L39.5010588,31.0042606 L39.5052791,31 Z M380,77.921169 L379.978918,77.921169 L379.978918,87.6181387 C375.947997,89.8676804 371.615601,91 366.979621,91 C362.305692,91 358.784961,90.301197 356.417428,88.9035911 C355.186226,88.1573385 354.309206,87.2148172 353.786367,86.0695568 C353.259311,84.9264531 353,83.6108056 353,82.1183004 C353,80.6301089 353.408995,79.2066214 354.226985,77.8543082 C356.961349,73.2862073 363.36402,71 373.432888,71 L376.169361,71 C377.491216,71 378.76669,71.1164672 379.995784,71.3494015 L379.995784,77.921169 L380,77.921169 Z M397,59.0495117 C397,54.7022443 396.334955,50.7875621 395.002742,47.3140312 C390.823372,36.4394381 381.247156,31 366.276217,31 C356.634133,31 347.748458,33.1522186 339.621316,37.4566558 L341.686566,52.802724 L341.892666,52.9419222 C343.821933,51.0937982 347.013297,49.4512592 351.468883,48.0164468 C353.487389,47.367569 355.563263,46.8471818 357.698629,46.4531437 C359.833996,46.0591057 362.016107,45.8620867 364.242838,45.8620867 C366.469568,45.8620867 368.570939,46.0698133 370.54695,46.4874079 C376.513228,47.7359089 379.683345,52.0660442 380.050925,59.4692479 C379.498492,59.3771629 378.882317,59.3193421 378.191775,59.297927 C377.503358,59.2765119 376.882934,59.2379647 376.3305,59.1908515 L373.574709,59.1223231 C361.450925,59.1223231 351.853461,61.5293815 344.784441,66.3434984 C338.26148,70.7871338 335,76.340072 335,83.0044543 C335,90.4569128 337.664428,96.1533322 342.989034,100.085146 C345.608842,102.029639 348.800206,103.500857 352.56525,104.496659 C356.330295,105.488179 360.855997,105.987151 366.135984,105.987151 C370.385469,105.987151 375.045031,104.813603 380.095545,102.505054 L380.095545,106 L396.995751,106 L396.995751,59.0495117 L397,59.0495117 Z M310.5,0 C304.700316,0 300,4.92582716 300,10.9989136 C300,17.0763457 304.700316,22 310.5,22 C316.299684,22 321,17.0763457 321,10.9989136 C321,4.92582716 316.299684,0 310.5,0 L310.5,0 Z M467.062345,68.75342 C465.279714,66.7879766 462.926134,65.1099529 459.99949,63.7151221 C457.07496,62.3202913 452.78861,61.2149936 447.146784,60.3928888 C441.500729,59.5686706 437.055782,58.2921891 433.809829,56.5549907 C432.075835,55.6462373 431.208838,54.3148079 431.208838,52.5818364 C431.208838,47.5583321 435.364081,45.0455233 443.685139,45.0455233 C445.647513,45.0455233 447.567595,45.2293874 449.441155,45.5950021 C455.520709,46.645352 459.99949,48.836927 462.877497,52.1676139 C463.516115,53.1313152 463.881945,53.608939 463.972874,53.608939 C464.019396,53.608939 464.087064,53.4293017 464.180108,53.063687 L465.755505,49.0207911 C466.263016,47.6957018 467.03697,45.5252606 468.087939,42.5115808 C468.45377,41.4126232 468.79634,40.271398 469.117763,39.0879052 C462.399592,33.6945595 454.285766,31 444.778402,31 C435.182223,31 427.662608,33.0119377 422.225901,37.0315865 C416.740557,41.0977295 414,46.689733 414,53.8181636 C414,59.6616593 415.939113,64.3914037 419.825798,67.9989433 C421.925623,69.915779 424.647149,71.5599886 427.984031,72.9315722 C431.320913,74.3052692 435.603033,75.3408254 440.840965,76.050921 C446.070439,76.7567899 450.035365,77.7944595 452.73363,79.1660431 C454.241359,79.9902613 454.996281,81.245609 454.996281,82.936313 C454.996281,88.1901756 451.041928,90.8149936 443.133222,90.8149936 C437.23764,90.8149936 431.570439,89.8808796 426.131617,88.0041982 C423.615211,87.1419392 421.401196,86.1380837 419.483229,84.9947451 C417.563147,83.8535199 416.260537,82.8813651 415.571168,82.0825075 C414.888144,81.2836499 414.522313,80.9201485 414.477906,80.9835499 L414.469447,81.0194774 L414.469447,99.1586177 C420.933863,103.03667 429.990812,105 441.69739,105 C451.34009,105 458.857591,102.876053 464.252005,98.6302727 C469.415925,94.6063973 472,89.3778952 472,82.9384264 C472,77.046323 470.35482,72.318692 467.062345,68.7576467 L467.062345,68.75342 Z M260.717283,69.1729072 C257.993635,71.7271643 254.77268,73 251.054417,73 C246.156886,73 242.188921,71.6091104 239.150521,68.8251848 C237.790795,67.5716671 236.758411,66.1571667 236.055466,64.5795373 C235.352522,63.0019079 235,61.3555927 235,59.638445 C235,57.9212974 235.314751,56.229907 235.952647,54.5578345 C238.130727,48.8526115 242.961111,46 250.441701,46 C254.978317,46 258.541302,47.2062962 261.122263,49.6188886 C263.709519,52.031481 265,55.1996184 265,59.1168614 C265,63.0362509 263.573127,66.3868352 260.719382,69.1707608 L260.717283,69.1729072 Z M238.746422,112 L242.312015,112.627331 C252.327415,114.109721 259.395118,116.178623 263.510892,118.827591 C267.171708,121.147855 269,124.213612 269,128.022712 C269,136.006138 263.37123,140 252.122156,140 C245.541151,140 240.166311,138.631474 236.001868,135.890125 C234.127022,134.637612 232.662695,133.174557 231.61312,131.503107 C230.559313,129.831658 230.021829,127.846543 230.000668,125.547763 C229.975275,123.248983 230.673581,120.8213 232.091354,118.269009 C233.509127,115.716719 235.73101,113.628482 238.746422,112 L238.746422,112 Z M250.500971,31 C240.69565,31 232.713398,33.8971752 226.558434,39.702177 C220.722084,45.2281127 217.801799,52.0897314 217.801799,60.2806422 C217.801799,67.6045307 220.380259,73.7290739 225.532958,78.6542718 C221.10822,82.1990509 218.896906,86.5277715 218.896906,91.6383034 C218.896906,94.6782071 219.249281,97.3815272 219.958252,99.7546546 C220.665113,102.125652 222.068285,104.185628 224.163547,105.932455 C216.457709,110.214309 212.739832,117.146227 213.014136,126.723947 C213.195599,134.963855 216.753113,141.57197 223.684569,146.544034 C230.620246,151.513968 239.741916,154 251.051689,154 C262.270731,154 270.727741,151.801555 276.431159,147.404666 C282.128246,143.007776 284.98101,136.710681 284.98101,128.515509 C284.98101,120.320338 282.723275,113.987028 278.207806,109.52197 C275.791819,107.178666 272.6331,105.197509 268.73376,103.584891 C264.834421,101.974402 259.441178,100.628068 252.556142,99.5458875 C245.668997,98.4637074 240.718861,97.2089749 237.712065,95.78169 C236.340544,95.1383467 235.45433,94.460919 235.042874,93.743016 C234.633527,93.0315038 234.430964,92.0174925 234.430964,90.7052426 C234.430964,89.3929926 235.270757,87.6099517 236.958783,85.3539895 C240.837023,86.6896725 245.033877,87.3564488 249.547236,87.3564488 C258.806058,87.3564488 266.421165,84.5231819 272.398887,78.8609086 C275.087068,76.2364087 277.16123,73.1879839 278.623482,69.7092433 C280.079405,66.2368936 280.809476,62.3597915 280.809476,58.0779369 C280.809476,53.7960824 279.828311,49.7421673 277.868091,45.9204524 L277.80479,45.8309808 L285,45.8309808 L285,31.0042606 L250.503081,31.0042606 L250.500971,31 Z" id="Shape" fill="#131969"></path>
            </g>
        </g>
    </g>
</svg>